<mxfile host="Electron" modified="2023-11-15T13:21:07.470Z" agent="Mozilla/5.0 (Windows NT 10.0; Win64; x64) AppleWebKit/537.36 (KHTML, like Gecko) draw.io/22.0.3 Chrome/114.0.5735.289 Electron/25.8.4 Safari/537.36" etag="iBfvFjwVaRwDP07GRTSb" version="22.0.3" type="device">
  <diagram name="Sayfa -1" id="Ufkxu_AtYqzrWvpiIIGy">
    <mxGraphModel dx="1963" dy="1774" grid="1" gridSize="10" guides="1" tooltips="1" connect="1" arrows="1" fold="1" page="1" pageScale="1" pageWidth="827" pageHeight="1169" math="0" shadow="0">
      <root>
        <mxCell id="0" />
        <mxCell id="1" parent="0" />
        <mxCell id="0WX_WVDtEWNZ272oBnlk-1" value="&lt;p style=&quot;margin:0px;margin-top:4px;text-align:center;&quot;&gt;&lt;b&gt;Person&lt;/b&gt;&lt;/p&gt;&lt;p style=&quot;margin:0px;margin-top:4px;text-align:center;&quot;&gt;&lt;b&gt;{abstract}&lt;/b&gt;&lt;/p&gt;&lt;hr size=&quot;1&quot;&gt;&lt;p style=&quot;margin:0 0 0 4px;line-height:1.6;&quot;&gt;+ Person(int, String, String, String, String): &lt;br&gt;+ Person(String, String): &lt;/p&gt;&lt;hr size=&quot;1&quot;&gt;&lt;p style=&quot;margin:0 0 0 4px;line-height:1.6;&quot;&gt;- department: Department&lt;br&gt;- ID: int&lt;br&gt;- surname: String&lt;br&gt;- name: String&lt;br&gt;- password: String&lt;br&gt;- userName: String&lt;/p&gt;&lt;hr size=&quot;1&quot;&gt;&lt;p style=&quot;margin:0 0 0 4px;line-height:1.6;&quot;&gt;+ getName(): String&lt;br&gt;+ setUserName(String): void&lt;br&gt;+ getPassword(): String&lt;br&gt;+ getDepartment(): Department&lt;br&gt;+ getSurname(): String&lt;br&gt;+ setPassword(String): void&lt;br&gt;+ getID(): int&lt;br&gt;+ getUserName(): String&lt;br&gt;+ setDepartment(Department): void&lt;br&gt;~ login(String, String): boolean&lt;/p&gt;" style="verticalAlign=top;align=left;overflow=fill;fontSize=14;fontFamily=Helvetica;html=1;rounded=0;shadow=0;comic=0;labelBackgroundColor=none;strokeWidth=1;" vertex="1" parent="1">
          <mxGeometry x="-240" y="-850" width="305" height="493" as="geometry" />
        </mxCell>
      </root>
    </mxGraphModel>
  </diagram>
</mxfile>
